<svg width="100" height="113" viewBox="0 0 100 113" fill="none" xmlns="http://www.w3.org/2000/svg">
<path d="M0 0H6.66667V6.64706H0V0Z" fill="#C6E3FF"/>
<path d="M0 53.1765H6.66667V59.8235H0V53.1765Z" fill="#C6E3FF"/>
<path d="M0 26.5882H6.66667V33.2353H0V26.5882Z" fill="#C6E3FF"/>
<path d="M0 79.7647H6.66667V86.4118H0V79.7647Z" fill="#C6E3FF"/>
<path d="M0 13.2941H6.66667V19.9412H0V13.2941Z" fill="#C6E3FF"/>
<path d="M0 66.4706H6.66667V73.1176H0V66.4706Z" fill="#C6E3FF"/>
<path d="M0 39.8824H6.66667V46.5294H0V39.8824Z" fill="#C6E3FF"/>
<path d="M0 93.0588H6.66667V99.7059H0V93.0588Z" fill="#C6E3FF"/>
<path d="M0 106.353H6.66667V113H0V106.353Z" fill="#C6E3FF"/>
<path d="M13.3333 0H20V6.64706H13.3333V0Z" fill="#C6E3FF"/>
<path d="M13.3333 53.1765H20V59.8235H13.3333V53.1765Z" fill="#C6E3FF"/>
<path d="M13.3333 26.5882H20V33.2353H13.3333V26.5882Z" fill="#C6E3FF"/>
<path d="M13.3333 79.7647H20V86.4118H13.3333V79.7647Z" fill="#C6E3FF"/>
<path d="M13.3333 13.2941H20V19.9412H13.3333V13.2941Z" fill="#C6E3FF"/>
<path d="M13.3333 66.4706H20V73.1176H13.3333V66.4706Z" fill="#C6E3FF"/>
<path d="M13.3333 39.8824H20V46.5294H13.3333V39.8824Z" fill="#C6E3FF"/>
<path d="M13.3333 93.0588H20V99.7059H13.3333V93.0588Z" fill="#C6E3FF"/>
<path d="M13.3333 106.353H20V113H13.3333V106.353Z" fill="#C6E3FF"/>
<path d="M6.66667 6.64706H13.3333V13.2941H6.66667V6.64706Z" fill="#C6E3FF"/>
<path d="M6.66667 59.8235H13.3333V66.4706H6.66667V59.8235Z" fill="#C6E3FF"/>
<path d="M6.66667 33.2353H13.3333V39.8824H6.66667V33.2353Z" fill="#C6E3FF"/>
<path d="M6.66667 86.4118H13.3333V93.0588H6.66667V86.4118Z" fill="#C6E3FF"/>
<path d="M6.66667 19.9412H13.3333V26.5882H6.66667V19.9412Z" fill="#C6E3FF"/>
<path d="M6.66667 73.1176H13.3333V79.7647H6.66667V73.1176Z" fill="#C6E3FF"/>
<path d="M6.66667 46.5294H13.3333V53.1765H6.66667V46.5294Z" fill="#C6E3FF"/>
<path d="M6.66667 99.7059H13.3333V106.353H6.66667V99.7059Z" fill="#C6E3FF"/>
<path d="M26.6667 0H33.3333V6.64706H26.6667V0Z" fill="#C6E3FF"/>
<path d="M26.6667 53.1765H33.3333V59.8235H26.6667V53.1765Z" fill="#C6E3FF"/>
<path d="M26.6667 26.5882H33.3333V33.2353H26.6667V26.5882Z" fill="#C6E3FF"/>
<path d="M26.6667 79.7647H33.3333V86.4118H26.6667V79.7647Z" fill="#C6E3FF"/>
<path d="M26.6667 13.2941H33.3333V19.9412H26.6667V13.2941Z" fill="#C6E3FF"/>
<path d="M26.6667 66.4706H33.3333V73.1176H26.6667V66.4706Z" fill="#C6E3FF"/>
<path d="M26.6667 39.8824H33.3333V46.5294H26.6667V39.8824Z" fill="#C6E3FF"/>
<path d="M26.6667 93.0588H33.3333V99.7059H26.6667V93.0588Z" fill="#C6E3FF"/>
<path d="M26.6667 106.353H33.3333V113H26.6667V106.353Z" fill="#C6E3FF"/>
<path d="M20 6.64706H26.6667V13.2941H20V6.64706Z" fill="#C6E3FF"/>
<path d="M20 59.8235H26.6667V66.4706H20V59.8235Z" fill="#C6E3FF"/>
<path d="M20 33.2353H26.6667V39.8824H20V33.2353Z" fill="#C6E3FF"/>
<path d="M20 86.4118H26.6667V93.0588H20V86.4118Z" fill="#C6E3FF"/>
<path d="M20 19.9412H26.6667V26.5882H20V19.9412Z" fill="#C6E3FF"/>
<path d="M20 73.1176H26.6667V79.7647H20V73.1176Z" fill="#C6E3FF"/>
<path d="M20 46.5294H26.6667V53.1765H20V46.5294Z" fill="#C6E3FF"/>
<path d="M20 99.7059H26.6667V106.353H20V99.7059Z" fill="#C6E3FF"/>
<path d="M40 0H46.6667V6.64706H40V0Z" fill="#C6E3FF"/>
<path d="M40 53.1765H46.6667V59.8235H40V53.1765Z" fill="#C6E3FF"/>
<path d="M40 26.5882H46.6667V33.2353H40V26.5882Z" fill="#C6E3FF"/>
<path d="M40 79.7647H46.6667V86.4118H40V79.7647Z" fill="#C6E3FF"/>
<path d="M40 13.2941H46.6667V19.9412H40V13.2941Z" fill="#C6E3FF"/>
<path d="M40 66.4706H46.6667V73.1176H40V66.4706Z" fill="#C6E3FF"/>
<path d="M40 39.8824H46.6667V46.5294H40V39.8824Z" fill="#C6E3FF"/>
<path d="M40 93.0588H46.6667V99.7059H40V93.0588Z" fill="#C6E3FF"/>
<path d="M40 106.353H46.6667V113H40V106.353Z" fill="#C6E3FF"/>
<path d="M33.3333 6.64706H40V13.2941H33.3333V6.64706Z" fill="#C6E3FF"/>
<path d="M33.3333 59.8235H40V66.4706H33.3333V59.8235Z" fill="#C6E3FF"/>
<path d="M33.3333 33.2353H40V39.8824H33.3333V33.2353Z" fill="#C6E3FF"/>
<path d="M33.3333 86.4118H40V93.0588H33.3333V86.4118Z" fill="#C6E3FF"/>
<path d="M33.3333 19.9412H40V26.5882H33.3333V19.9412Z" fill="#C6E3FF"/>
<path d="M33.3333 73.1176H40V79.7647H33.3333V73.1176Z" fill="#C6E3FF"/>
<path d="M33.3333 46.5294H40V53.1765H33.3333V46.5294Z" fill="#C6E3FF"/>
<path d="M33.3333 99.7059H40V106.353H33.3333V99.7059Z" fill="#C6E3FF"/>
<path d="M53.3333 0H60V6.64706H53.3333V0Z" fill="#C6E3FF"/>
<path d="M53.3333 53.1765H60V59.8235H53.3333V53.1765Z" fill="#C6E3FF"/>
<path d="M53.3333 26.5882H60V33.2353H53.3333V26.5882Z" fill="#C6E3FF"/>
<path d="M53.3333 79.7647H60V86.4118H53.3333V79.7647Z" fill="#C6E3FF"/>
<path d="M53.3333 13.2941H60V19.9412H53.3333V13.2941Z" fill="#C6E3FF"/>
<path d="M53.3333 66.4706H60V73.1176H53.3333V66.4706Z" fill="#C6E3FF"/>
<path d="M53.3333 39.8824H60V46.5294H53.3333V39.8824Z" fill="#C6E3FF"/>
<path d="M53.3333 93.0588H60V99.7059H53.3333V93.0588Z" fill="#C6E3FF"/>
<path d="M53.3333 106.353H60V113H53.3333V106.353Z" fill="#C6E3FF"/>
<path d="M46.6667 6.64706H53.3333V13.2941H46.6667V6.64706Z" fill="#C6E3FF"/>
<path d="M46.6667 59.8235H53.3333V66.4706H46.6667V59.8235Z" fill="#C6E3FF"/>
<path d="M46.6667 33.2353H53.3333V39.8824H46.6667V33.2353Z" fill="#C6E3FF"/>
<path d="M46.6667 86.4118H53.3333V93.0588H46.6667V86.4118Z" fill="#C6E3FF"/>
<path d="M46.6667 19.9412H53.3333V26.5882H46.6667V19.9412Z" fill="#C6E3FF"/>
<path d="M46.6667 73.1176H53.3333V79.7647H46.6667V73.1176Z" fill="#C6E3FF"/>
<path d="M46.6667 46.5294H53.3333V53.1765H46.6667V46.5294Z" fill="#C6E3FF"/>
<path d="M46.6667 99.7059H53.3333V106.353H46.6667V99.7059Z" fill="#C6E3FF"/>
<path d="M66.6667 0H73.3333V6.64706H66.6667V0Z" fill="#C6E3FF"/>
<path d="M66.6667 53.1765H73.3333V59.8235H66.6667V53.1765Z" fill="#C6E3FF"/>
<path d="M66.6667 26.5882H73.3333V33.2353H66.6667V26.5882Z" fill="#C6E3FF"/>
<path d="M66.6667 79.7647H73.3333V86.4118H66.6667V79.7647Z" fill="#C6E3FF"/>
<path d="M66.6667 13.2941H73.3333V19.9412H66.6667V13.2941Z" fill="#C6E3FF"/>
<path d="M66.6667 66.4706H73.3333V73.1176H66.6667V66.4706Z" fill="#C6E3FF"/>
<path d="M66.6667 39.8824H73.3333V46.5294H66.6667V39.8824Z" fill="#C6E3FF"/>
<path d="M66.6667 93.0588H73.3333V99.7059H66.6667V93.0588Z" fill="#C6E3FF"/>
<path d="M66.6667 106.353H73.3333V113H66.6667V106.353Z" fill="#C6E3FF"/>
<path d="M60 6.64706H66.6667V13.2941H60V6.64706Z" fill="#C6E3FF"/>
<path d="M60 59.8235H66.6667V66.4706H60V59.8235Z" fill="#C6E3FF"/>
<path d="M60 33.2353H66.6667V39.8824H60V33.2353Z" fill="#C6E3FF"/>
<path d="M60 86.4118H66.6667V93.0588H60V86.4118Z" fill="#C6E3FF"/>
<path d="M60 19.9412H66.6667V26.5882H60V19.9412Z" fill="#C6E3FF"/>
<path d="M60 73.1176H66.6667V79.7647H60V73.1176Z" fill="#C6E3FF"/>
<path d="M60 46.5294H66.6667V53.1765H60V46.5294Z" fill="#C6E3FF"/>
<path d="M60 99.7059H66.6667V106.353H60V99.7059Z" fill="#C6E3FF"/>
<path d="M80 0H86.6667V6.64706H80V0Z" fill="#C6E3FF"/>
<path d="M80 53.1765H86.6667V59.8235H80V53.1765Z" fill="#C6E3FF"/>
<path d="M80 26.5882H86.6667V33.2353H80V26.5882Z" fill="#C6E3FF"/>
<path d="M80 79.7647H86.6667V86.4118H80V79.7647Z" fill="#C6E3FF"/>
<path d="M80 13.2941H86.6667V19.9412H80V13.2941Z" fill="#C6E3FF"/>
<path d="M80 66.4706H86.6667V73.1176H80V66.4706Z" fill="#C6E3FF"/>
<path d="M80 39.8824H86.6667V46.5294H80V39.8824Z" fill="#C6E3FF"/>
<path d="M80 93.0588H86.6667V99.7059H80V93.0588Z" fill="#C6E3FF"/>
<path d="M80 106.353H86.6667V113H80V106.353Z" fill="#C6E3FF"/>
<path d="M73.3333 6.64706H80V13.2941H73.3333V6.64706Z" fill="#C6E3FF"/>
<path d="M73.3333 59.8235H80V66.4706H73.3333V59.8235Z" fill="#C6E3FF"/>
<path d="M73.3333 33.2353H80V39.8824H73.3333V33.2353Z" fill="#C6E3FF"/>
<path d="M73.3333 86.4118H80V93.0588H73.3333V86.4118Z" fill="#C6E3FF"/>
<path d="M73.3333 19.9412H80V26.5882H73.3333V19.9412Z" fill="#C6E3FF"/>
<path d="M73.3333 73.1176H80V79.7647H73.3333V73.1176Z" fill="#C6E3FF"/>
<path d="M73.3333 46.5294H80V53.1765H73.3333V46.5294Z" fill="#C6E3FF"/>
<path d="M73.3333 99.7059H80V106.353H73.3333V99.7059Z" fill="#C6E3FF"/>
<path d="M93.3333 0H100V6.64706H93.3333V0Z" fill="#C6E3FF"/>
<path d="M93.3333 53.1765H100V59.8235H93.3333V53.1765Z" fill="#C6E3FF"/>
<path d="M93.3333 26.5882H100V33.2353H93.3333V26.5882Z" fill="#C6E3FF"/>
<path d="M93.3333 79.7647H100V86.4118H93.3333V79.7647Z" fill="#C6E3FF"/>
<path d="M93.3333 13.2941H100V19.9412H93.3333V13.2941Z" fill="#C6E3FF"/>
<path d="M93.3333 66.4706H100V73.1176H93.3333V66.4706Z" fill="#C6E3FF"/>
<path d="M93.3333 39.8824H100V46.5294H93.3333V39.8824Z" fill="#C6E3FF"/>
<path d="M93.3333 93.0588H100V99.7059H93.3333V93.0588Z" fill="#C6E3FF"/>
<path d="M93.3333 106.353H100V113H93.3333V106.353Z" fill="#C6E3FF"/>
<path d="M86.6667 6.64706H93.3333V13.2941H86.6667V6.64706Z" fill="#C6E3FF"/>
<path d="M86.6667 59.8235H93.3333V66.4706H86.6667V59.8235Z" fill="#C6E3FF"/>
<path d="M86.6667 33.2353H93.3333V39.8824H86.6667V33.2353Z" fill="#C6E3FF"/>
<path d="M86.6667 86.4118H93.3333V93.0588H86.6667V86.4118Z" fill="#C6E3FF"/>
<path d="M86.6667 19.9412H93.3333V26.5882H86.6667V19.9412Z" fill="#C6E3FF"/>
<path d="M86.6667 73.1176H93.3333V79.7647H86.6667V73.1176Z" fill="#C6E3FF"/>
<path d="M86.6667 46.5294H93.3333V53.1765H86.6667V46.5294Z" fill="#C6E3FF"/>
<path d="M86.6667 99.7059H93.3333V106.353H86.6667V99.7059Z" fill="#C6E3FF"/>
<path d="M6.66667 0H13.3333V6.64706H6.66667V0Z" fill="white"/>
<path d="M6.66667 53.1765H13.3333V59.8235H6.66667V53.1765Z" fill="white"/>
<path d="M6.66667 26.5882H13.3333V33.2353H6.66667V26.5882Z" fill="white"/>
<path d="M6.66667 79.7647H13.3333V86.4118H6.66667V79.7647Z" fill="white"/>
<path d="M6.66667 13.2941H13.3333V19.9412H6.66667V13.2941Z" fill="white"/>
<path d="M6.66667 66.4706H13.3333V73.1176H6.66667V66.4706Z" fill="white"/>
<path d="M6.66667 39.8824H13.3333V46.5294H6.66667V39.8824Z" fill="white"/>
<path d="M6.66667 93.0588H13.3333V99.7059H6.66667V93.0588Z" fill="white"/>
<path d="M6.66667 106.353H13.3333V113H6.66667V106.353Z" fill="white"/>
<path d="M0 6.64706H6.66667V13.2941H0V6.64706Z" fill="white"/>
<path d="M0 59.8235H6.66667V66.4706H0V59.8235Z" fill="white"/>
<path d="M0 33.2353H6.66667V39.8824H0V33.2353Z" fill="white"/>
<path d="M0 86.4118H6.66667V93.0588H0V86.4118Z" fill="white"/>
<path d="M0 19.9412H6.66667V26.5882H0V19.9412Z" fill="white"/>
<path d="M0 73.1176H6.66667V79.7647H0V73.1176Z" fill="white"/>
<path d="M0 46.5294H6.66667V53.1765H0V46.5294Z" fill="white"/>
<path d="M0 99.7059H6.66667V106.353H0V99.7059Z" fill="white"/>
<path d="M20 0H26.6667V6.64706H20V0Z" fill="white"/>
<path d="M20 53.1765H26.6667V59.8235H20V53.1765Z" fill="white"/>
<path d="M20 26.5882H26.6667V33.2353H20V26.5882Z" fill="white"/>
<path d="M20 79.7647H26.6667V86.4118H20V79.7647Z" fill="white"/>
<path d="M20 13.2941H26.6667V19.9412H20V13.2941Z" fill="white"/>
<path d="M20 66.4706H26.6667V73.1176H20V66.4706Z" fill="white"/>
<path d="M20 39.8824H26.6667V46.5294H20V39.8824Z" fill="white"/>
<path d="M20 93.0588H26.6667V99.7059H20V93.0588Z" fill="white"/>
<path d="M20 106.353H26.6667V113H20V106.353Z" fill="white"/>
<path d="M13.3333 6.64706H20V13.2941H13.3333V6.64706Z" fill="white"/>
<path d="M13.3333 59.8235H20V66.4706H13.3333V59.8235Z" fill="white"/>
<path d="M13.3333 33.2353H20V39.8824H13.3333V33.2353Z" fill="white"/>
<path d="M13.3333 86.4118H20V93.0588H13.3333V86.4118Z" fill="white"/>
<path d="M13.3333 19.9412H20V26.5882H13.3333V19.9412Z" fill="white"/>
<path d="M13.3333 73.1176H20V79.7647H13.3333V73.1176Z" fill="white"/>
<path d="M13.3333 46.5294H20V53.1765H13.3333V46.5294Z" fill="white"/>
<path d="M13.3333 99.7059H20V106.353H13.3333V99.7059Z" fill="white"/>
<path d="M33.3333 0H40V6.64706H33.3333V0Z" fill="white"/>
<path d="M33.3333 53.1765H40V59.8235H33.3333V53.1765Z" fill="white"/>
<path d="M33.3333 26.5882H40V33.2353H33.3333V26.5882Z" fill="white"/>
<path d="M33.3333 79.7647H40V86.4118H33.3333V79.7647Z" fill="white"/>
<path d="M33.3333 13.2941H40V19.9412H33.3333V13.2941Z" fill="white"/>
<path d="M33.3333 66.4706H40V73.1176H33.3333V66.4706Z" fill="white"/>
<path d="M33.3333 39.8824H40V46.5294H33.3333V39.8824Z" fill="white"/>
<path d="M33.3333 93.0588H40V99.7059H33.3333V93.0588Z" fill="white"/>
<path d="M33.3333 106.353H40V113H33.3333V106.353Z" fill="white"/>
<path d="M26.6667 6.64706H33.3333V13.2941H26.6667V6.64706Z" fill="white"/>
<path d="M26.6667 59.8235H33.3333V66.4706H26.6667V59.8235Z" fill="white"/>
<path d="M26.6667 33.2353H33.3333V39.8824H26.6667V33.2353Z" fill="white"/>
<path d="M26.6667 86.4118H33.3333V93.0588H26.6667V86.4118Z" fill="white"/>
<path d="M26.6667 19.9412H33.3333V26.5882H26.6667V19.9412Z" fill="white"/>
<path d="M26.6667 73.1176H33.3333V79.7647H26.6667V73.1176Z" fill="white"/>
<path d="M26.6667 46.5294H33.3333V53.1765H26.6667V46.5294Z" fill="white"/>
<path d="M26.6667 99.7059H33.3333V106.353H26.6667V99.7059Z" fill="white"/>
<path d="M46.6667 0H53.3333V6.64706H46.6667V0Z" fill="white"/>
<path d="M46.6667 53.1765H53.3333V59.8235H46.6667V53.1765Z" fill="white"/>
<path d="M46.6667 26.5882H53.3333V33.2353H46.6667V26.5882Z" fill="white"/>
<path d="M46.6667 79.7647H53.3333V86.4118H46.6667V79.7647Z" fill="white"/>
<path d="M46.6667 13.2941H53.3333V19.9412H46.6667V13.2941Z" fill="white"/>
<path d="M46.6667 66.4706H53.3333V73.1176H46.6667V66.4706Z" fill="white"/>
<path d="M46.6667 39.8824H53.3333V46.5294H46.6667V39.8824Z" fill="white"/>
<path d="M46.6667 93.0588H53.3333V99.7059H46.6667V93.0588Z" fill="white"/>
<path d="M46.6667 106.353H53.3333V113H46.6667V106.353Z" fill="white"/>
<path d="M40 6.64706H46.6667V13.2941H40V6.64706Z" fill="white"/>
<path d="M40 59.8235H46.6667V66.4706H40V59.8235Z" fill="white"/>
<path d="M40 33.2353H46.6667V39.8824H40V33.2353Z" fill="white"/>
<path d="M40 86.4118H46.6667V93.0588H40V86.4118Z" fill="white"/>
<path d="M40 19.9412H46.6667V26.5882H40V19.9412Z" fill="white"/>
<path d="M40 73.1176H46.6667V79.7647H40V73.1176Z" fill="white"/>
<path d="M40 46.5294H46.6667V53.1765H40V46.5294Z" fill="white"/>
<path d="M40 99.7059H46.6667V106.353H40V99.7059Z" fill="white"/>
<path d="M60 0H66.6667V6.64706H60V0Z" fill="white"/>
<path d="M60 53.1765H66.6667V59.8235H60V53.1765Z" fill="white"/>
<path d="M60 26.5882H66.6667V33.2353H60V26.5882Z" fill="white"/>
<path d="M60 79.7647H66.6667V86.4118H60V79.7647Z" fill="white"/>
<path d="M60 13.2941H66.6667V19.9412H60V13.2941Z" fill="white"/>
<path d="M60 66.4706H66.6667V73.1176H60V66.4706Z" fill="white"/>
<path d="M60 39.8824H66.6667V46.5294H60V39.8824Z" fill="white"/>
<path d="M60 93.0588H66.6667V99.7059H60V93.0588Z" fill="white"/>
<path d="M60 106.353H66.6667V113H60V106.353Z" fill="white"/>
<path d="M53.3333 6.64706H60V13.2941H53.3333V6.64706Z" fill="white"/>
<path d="M53.3333 59.8235H60V66.4706H53.3333V59.8235Z" fill="white"/>
<path d="M53.3333 33.2353H60V39.8824H53.3333V33.2353Z" fill="white"/>
<path d="M53.3333 86.4118H60V93.0588H53.3333V86.4118Z" fill="white"/>
<path d="M53.3333 19.9412H60V26.5882H53.3333V19.9412Z" fill="white"/>
<path d="M53.3333 73.1176H60V79.7647H53.3333V73.1176Z" fill="white"/>
<path d="M53.3333 46.5294H60V53.1765H53.3333V46.5294Z" fill="white"/>
<path d="M53.3333 99.7059H60V106.353H53.3333V99.7059Z" fill="white"/>
<path d="M73.3333 0H80V6.64706H73.3333V0Z" fill="white"/>
<path d="M73.3333 53.1765H80V59.8235H73.3333V53.1765Z" fill="white"/>
<path d="M73.3333 26.5882H80V33.2353H73.3333V26.5882Z" fill="white"/>
<path d="M73.3333 79.7647H80V86.4118H73.3333V79.7647Z" fill="white"/>
<path d="M73.3333 13.2941H80V19.9412H73.3333V13.2941Z" fill="white"/>
<path d="M73.3333 66.4706H80V73.1176H73.3333V66.4706Z" fill="white"/>
<path d="M73.3333 39.8824H80V46.5294H73.3333V39.8824Z" fill="white"/>
<path d="M73.3333 93.0588H80V99.7059H73.3333V93.0588Z" fill="white"/>
<path d="M73.3333 106.353H80V113H73.3333V106.353Z" fill="white"/>
<path d="M66.6667 6.64706H73.3333V13.2941H66.6667V6.64706Z" fill="white"/>
<path d="M66.6667 59.8235H73.3333V66.4706H66.6667V59.8235Z" fill="white"/>
<path d="M66.6667 33.2353H73.3333V39.8824H66.6667V33.2353Z" fill="white"/>
<path d="M66.6667 86.4118H73.3333V93.0588H66.6667V86.4118Z" fill="white"/>
<path d="M66.6667 19.9412H73.3333V26.5882H66.6667V19.9412Z" fill="white"/>
<path d="M66.6667 73.1176H73.3333V79.7647H66.6667V73.1176Z" fill="white"/>
<path d="M66.6667 46.5294H73.3333V53.1765H66.6667V46.5294Z" fill="white"/>
<path d="M66.6667 99.7059H73.3333V106.353H66.6667V99.7059Z" fill="white"/>
<path d="M86.6667 0H93.3333V6.64706H86.6667V0Z" fill="white"/>
<path d="M86.6667 53.1765H93.3333V59.8235H86.6667V53.1765Z" fill="white"/>
<path d="M86.6667 26.5882H93.3333V33.2353H86.6667V26.5882Z" fill="white"/>
<path d="M86.6667 79.7647H93.3333V86.4118H86.6667V79.7647Z" fill="white"/>
<path d="M86.6667 13.2941H93.3333V19.9412H86.6667V13.2941Z" fill="white"/>
<path d="M86.6667 66.4706H93.3333V73.1176H86.6667V66.4706Z" fill="white"/>
<path d="M86.6667 39.8824H93.3333V46.5294H86.6667V39.8824Z" fill="white"/>
<path d="M86.6667 93.0588H93.3333V99.7059H86.6667V93.0588Z" fill="white"/>
<path d="M86.6667 106.353H93.3333V113H86.6667V106.353Z" fill="white"/>
<path d="M80 6.64706H86.6667V13.2941H80V6.64706Z" fill="white"/>
<path d="M80 59.8235H86.6667V66.4706H80V59.8235Z" fill="white"/>
<path d="M80 33.2353H86.6667V39.8824H80V33.2353Z" fill="white"/>
<path d="M80 86.4118H86.6667V93.0588H80V86.4118Z" fill="white"/>
<path d="M80 19.9412H86.6667V26.5882H80V19.9412Z" fill="white"/>
<path d="M80 73.1176H86.6667V79.7647H80V73.1176Z" fill="white"/>
<path d="M80 46.5294H86.6667V53.1765H80V46.5294Z" fill="white"/>
<path d="M80 99.7059H86.6667V106.353H80V99.7059Z" fill="white"/>
<path d="M93.3333 6.64706H100V13.2941H93.3333V6.64706Z" fill="white"/>
<path d="M93.3333 59.8235H100V66.4706H93.3333V59.8235Z" fill="white"/>
<path d="M93.3333 33.2353H100V39.8824H93.3333V33.2353Z" fill="white"/>
<path d="M93.3333 86.4118H100V93.0588H93.3333V86.4118Z" fill="white"/>
<path d="M93.3333 19.9412H100V26.5882H93.3333V19.9412Z" fill="white"/>
<path d="M93.3333 73.1176H100V79.7647H93.3333V73.1176Z" fill="white"/>
<path d="M93.3333 46.5294H100V53.1765H93.3333V46.5294Z" fill="white"/>
<path d="M93.3333 99.7059H100V106.353H93.3333V99.7059Z" fill="white"/>
</svg>
