<svg width="100" height="82" viewBox="0 0 100 82" fill="none" xmlns="http://www.w3.org/2000/svg">
<path d="M9.73099 41.8442C11.0774 40.9366 12.9289 41.2227 13.9155 42.5641C15.5501 44.7845 17.9339 48.8428 15.5862 53.8834L15.5759 53.9056L15.5645 53.9286C15.4473 54.1645 15.3198 54.4224 15.1923 54.6877L15.1874 54.6969L15.1835 54.7052C14.5668 55.9585 14.1696 56.8722 14.0371 57.5552C14.0182 57.6526 14.0077 57.7335 14.002 57.7989C14.2718 57.6921 14.5974 57.4939 14.8805 57.2308L14.8847 57.2274C15.2071 56.9292 15.4894 56.6056 15.9292 56.1279C16.7845 55.1735 17.9441 53.8658 19.6364 53.053L19.6395 53.0514C20.84 52.4774 22.0653 52.2864 22.9326 52.1412C23.5488 52.0318 23.9681 51.9558 24.3279 51.8439C24.6485 51.735 24.9525 51.5777 25.2194 51.3781C26.5353 50.3928 28.4064 50.6096 29.4438 51.9072L29.5417 52.0366L29.5434 52.0387C30.5006 53.3754 30.2455 55.2615 28.8902 56.2785L28.886 56.282C28.0765 56.886 27.1877 57.3575 26.2234 57.6697L26.2173 57.672C25.3889 57.9372 24.5952 58.0728 23.9393 58.1816L23.9402 58.1827C23.0763 58.329 22.6116 58.4216 22.2735 58.5821L22.2693 58.5846C21.7883 58.8115 21.3222 59.289 20.4786 60.2319L20.4675 60.2443C20.0776 60.673 19.5975 61.2061 19.0571 61.7063L19.058 61.7074C17.6164 63.0532 15.3701 64.2347 13.0188 63.9748C12.0346 63.8659 11.0578 63.5034 10.1833 62.8126L10.177 62.808C7.98445 61.0613 7.64917 58.716 7.96251 56.7332C8.25762 54.8659 9.1531 53.0865 9.68421 52.0083L9.68539 52.0065C9.81279 51.7486 9.92165 51.5221 10.0173 51.3109L10.0237 51.2971L10.0291 51.2841C10.4232 50.4465 10.5127 49.751 10.3892 49.0523C10.2575 48.3069 9.85323 47.3928 8.97419 46.1979C7.97428 44.8495 8.26022 42.9432 9.6025 41.9359L9.73099 41.8442Z" fill="black"/>
<path d="M20.0233 26.4998C20.5629 24.8266 22.3543 23.8619 24.0467 24.4365L24.0455 24.4372C30.293 26.5337 34.2707 32.0592 34.3948 38.7563L34.3937 39.3686C34.3256 42.454 33.3128 45.8215 31.6901 48.3887L31.6893 48.3875C30.9376 49.5814 29.5484 50.1136 28.2614 49.7951C27.9398 49.7155 27.6187 49.5769 27.3256 49.3856L27.3251 49.3876C27.3138 49.3803 27.3029 49.3721 27.2917 49.3647L27.2881 49.3628C25.8154 48.3875 25.4728 46.4116 26.3992 44.9706C27.466 43.2677 28.1207 40.9327 28.0852 38.944L28.0857 38.942C28.0171 34.9373 25.7006 31.7518 21.999 30.5181L21.9922 30.5165L21.9857 30.5138C20.3485 29.955 19.4759 28.1626 20.0233 26.4998Z" fill="black"/>
<path d="M25.0892 11.5977C29.8926 10.4647 34.3916 11.6548 37.8809 15.0679C42.5068 19.5877 44.6533 27.4489 43.3953 34.2643L43.3942 34.2708C43.0469 36.122 41.264 37.409 39.361 37.0441C37.4649 36.6804 36.2781 34.8356 36.6245 32.9887C37.4907 28.2684 35.8777 22.7799 33.0934 20.0587L33.0912 20.0565C31.326 18.3278 29.2536 17.7489 26.6621 18.3532C23.1542 19.1924 19.595 22.6836 18.468 26.6752C17.6607 29.559 18.2644 32.5854 20.1904 35.064L20.3815 35.3025L20.3869 35.309L20.3935 35.3167C21.5464 36.7415 21.4398 38.927 19.9438 40.1828L19.9427 40.1817C19.3381 40.6903 18.564 41 17.7323 41C16.7467 41 15.7567 40.5716 15.0744 39.7321C11.6261 35.5403 10.3996 29.9549 11.8468 24.7946C13.611 18.4866 18.9618 13.0378 25.0892 11.5977Z" fill="black"/>
<path d="M14.1918 3.59988C19.9413 -0.0905141 27.3011 -0.956912 34.3413 1.06254H34.3435C41.3121 3.0658 47.1654 7.60347 50.4289 13.6783L50.7372 14.2709L50.7394 14.2755C53.6149 20.0398 54.4425 27.0797 53.1707 34.072C51.7051 42.1628 47.7934 48.058 43.9626 53.8719C42.9276 55.4491 41.8775 57.0382 40.8858 58.6595L40.8825 58.664C39.8391 60.3599 38.8976 62.27 37.8168 64.4297C34.8916 70.3389 31.099 78.2486 23.181 81.0299C21.2994 81.69 19.3175 82 17.3457 82C12.7097 82 7.97129 80.2879 4.60288 77.0592L4.59842 77.0557C0.630015 73.2348 -0.837901 68.0088 0.460634 62.5238L0.466218 62.5044L0.470685 62.4849C0.93771 60.6512 2.70582 59.4616 4.55374 59.8229L4.73243 59.8629L4.75589 59.8686L4.77822 59.8744C6.6397 60.3809 7.76497 62.3226 7.3145 64.2512L7.31226 64.2615C6.61429 67.1918 7.36886 69.7835 9.39846 71.7385C12.2544 74.4749 17.0409 75.507 20.905 74.1523H20.9072C23.3063 73.3143 25.2116 71.6305 26.9156 69.3179C28.6447 66.9713 30.0532 64.1396 31.5448 61.127L31.547 61.1224C32.5685 59.0703 33.6861 56.7831 34.9377 54.7688C35.9966 53.0407 37.0868 51.3682 38.144 49.7811C41.8643 44.1238 45.0697 39.2025 46.2431 32.7278L46.3325 32.2084C47.2066 26.8458 46.5023 21.6742 44.4685 17.593C42.2463 13.1537 37.8967 9.62093 32.4416 8.05452C27.148 6.53504 21.8707 7.2308 17.932 9.76476L17.9309 9.76591C14.2072 12.1594 12.4917 15.8973 11.8007 17.9819L11.794 18.0014L11.7873 18.022C11.1461 19.8459 9.18452 20.8956 7.31673 20.2402L7.29886 20.2333L7.28211 20.2276C5.46611 19.5567 4.4857 17.4932 5.1423 15.5922C6.10869 12.6864 8.58031 7.22332 14.1873 3.60331L14.1918 3.59988Z" fill="black"/>
<path fill-rule="evenodd" clip-rule="evenodd" d="M76.4734 45.3604C75.2568 48.8482 72.6423 57.796 72.0986 58.95C69.1303 57.3568 64.79 57.7616 62.7709 59.794C60.7172 61.8522 60.6827 65.0386 63.0384 66.8385C65.0317 68.3456 68.1639 68.7331 70.3211 67.3208C73.4965 65.2367 73.7726 62.0158 74.903 58.6314C75.4639 56.9607 76.0247 55.2727 76.4907 53.5934C77.5089 49.8644 77.8541 50.1659 79.9163 50.3036L88.6055 50.9323C91.7205 51.3715 91.6601 50.8634 90.7973 53.6278C89.8912 56.5214 88.4934 60.9824 88.1655 61.8005C86.6209 60.8188 83.178 59.6992 79.3986 61.9986C75.136 64.5908 76.9221 70.9981 82.738 70.9981C84.9815 70.9981 87.5442 69.6718 88.5106 67.7255L90.8231 60.9221C92.4022 56.0478 93.2306 53.6537 94.6198 48.676C95.5172 45.4465 95.2152 45.7738 88.968 44.6284C85.4992 43.9911 82.0131 44.2925 78.5357 44.1806C77.1724 44.1375 76.8963 44.1375 76.4734 45.3604Z" fill="black"/>
<path fill-rule="evenodd" clip-rule="evenodd" d="M61.4951 9.60401C62.6255 12.1445 65.5075 16.2007 67.4921 19.1805C68.2946 20.3775 70.5036 23.8223 70.7452 24.3648C67.8977 25.0624 65.6628 27.1981 65.0329 29.7645C64.5152 31.8744 64.7223 34.3374 66.6206 35.5258C69.7874 37.5066 73.8688 34.4924 74.6885 31.0218C75.1113 29.2219 74.9819 28.7827 74.5936 27.1292C74.4124 26.3369 71.5735 21.9793 71.0299 21.1612C70.2965 20.0416 67.7251 16.0716 67.4058 15.0984C69.1143 15.0898 70.4863 14.7539 72.2207 15.3912C73.7394 15.9596 74.7748 17.148 75.1113 19.2752C75.258 20.2139 74.9042 21.4195 76.095 21.1267C77.0356 20.9028 77.3548 16.9069 75.7758 13.8497C74.9215 12.1876 72.4882 10.6116 70.7106 10.181C68.493 9.99155 66.1978 10.026 64.0665 9.33704C62.7721 8.92367 62.1077 8.4414 61.4951 9.60401Z" fill="black"/>
<path fill-rule="evenodd" clip-rule="evenodd" d="M89.347 28.8174C92.0047 28.8174 93.6873 26.9314 94.0066 24.4426L94.9557 16.1407L96.8109 17.4928C97.8895 18.4918 98.1139 20.0247 97.5099 21.3768C97.3287 21.7815 96.5607 22.5997 96.8541 23.0819C97.0871 23.4608 98.0449 22.703 98.554 22.1346C99.8742 20.6878 100.34 18.7329 99.7447 16.6661C99.0458 14.2289 96.7505 13.2988 95.7065 11.6625C94.1188 9.15647 94.0497 10.4483 93.8771 12.5754C93.7909 13.4796 93.0488 22.2466 92.7985 22.3671C91.0038 21.9021 88.8379 21.549 87.3365 23.0561C83.7038 26.7161 87.1726 28.8174 89.347 28.8174Z" fill="black"/>
</svg>
