<svg width="100" height="65" viewBox="0 0 100 65" fill="none" xmlns="http://www.w3.org/2000/svg">
<path d="M99.9999 32.6807C100.055 7.23735 73.2151 -0.00415271 50.1707 1.78631e-06C50.1707 1.78631e-06 50.1095 0.000137314 50.0712 0.00022143C50.033 0.000305545 50.01 0.000355399 49.9717 0.000439515C26.9271 0.0975943 0.0553457 7.45716 7.01769e-05 32.9005C-0.0552054 58.3439 32.5568 64.9915 49.8305 65C49.8305 65 49.8994 64.9998 49.93 64.9998C49.9606 64.9997 49.9989 64.9996 50.0295 64.9996C67.3034 64.9073 99.9447 58.0931 99.9999 32.673L99.9999 32.6807Z" fill="#986706"/>
<path d="M21.9312 20.2266C24.4079 20.2212 26.2618 21.8421 26.2507 26.9534L26.2496 27.4852C26.2385 32.5965 24.4364 34.2255 22.0482 34.2307L22.0254 44.7489L19.9615 44.7534L20.0148 20.2308L21.9312 20.2266ZM22.0517 32.6057L22.1992 32.6054C23.2901 32.603 24.1177 31.6558 24.124 28.7603L24.1306 25.6876C24.1369 22.7922 23.3134 21.8486 22.2225 21.851L22.0751 21.8513L22.0517 32.6057Z" fill="#FEF6E6"/>
<path d="M29.4266 20.2101C31.7264 20.2051 33.639 21.9736 33.629 26.5531L33.6279 27.0849C33.6214 30.0394 32.8505 32.0502 31.4037 33.0284L31.403 33.3238C32.5513 34.0304 32.8737 34.9456 32.9278 37.1909L33.0364 41.4747C33.0631 42.7746 33.1788 43.7789 33.5017 44.4282L33.5011 44.7236L31.3782 44.7283C31.1438 44.0493 31.0866 43.2517 31.0595 42.1586L30.8662 36.1318C30.8104 34.6842 30.3105 34.0649 29.3965 34.0669L29.3733 44.7327L27.3094 44.7372L27.3627 20.2147L29.4266 20.2101ZM29.4 32.4419L29.5474 32.4416C30.7268 32.439 31.4956 31.4032 31.5024 28.3009L31.5074 25.9669C31.5142 22.8646 30.7498 21.8322 29.5705 21.8348L29.4231 21.8351L29.4 32.4419Z" fill="#FEF6E6"/>
<path d="M34.8057 20.1983L39.9949 20.1869L39.9912 21.9005L36.8659 21.9074L36.8453 31.3619L39.6168 31.3558L39.6131 33.0694L36.8416 33.0755L36.82 43.0027L39.9453 42.9958L39.9416 44.7095L34.7524 44.7209L34.8057 20.1983ZM34.7201 18.869L39.8523 17.9418L39.9979 18.7983L34.8657 19.7255L34.7201 18.869Z" fill="#FEF6E6"/>
<path d="M40.8254 25.3259C40.8328 21.9282 41.9868 20.0053 44.1981 20.0004C46.262 19.9959 47.3196 21.7662 47.3138 24.4253L47.3044 28.7389L45.4764 28.7429C45.272 27.857 45.2447 26.823 45.247 25.7889L45.2522 23.3958C45.2544 22.3617 44.8725 21.7125 44.1944 21.714C43.4573 21.7156 43.0431 22.3665 43.0407 23.4893L43.0018 41.3937C42.9993 42.5164 43.4107 43.1655 44.1478 43.1639C44.8259 43.1624 45.2106 42.5116 45.2129 41.4775L45.2184 38.9366C45.2206 37.9025 45.2524 36.8683 45.4607 35.9815L47.2887 35.9775L47.279 40.4388C47.2732 43.0979 46.208 44.873 44.1441 44.8775C41.9328 44.8824 40.7871 42.9644 40.7944 39.5667L40.8254 25.3259Z" fill="#FEF6E6"/>
<path d="M48.6781 20.1678L50.742 20.1633L50.6888 44.6858L48.6249 44.6904L48.6781 20.1678Z" fill="#FEF6E6"/>
<path d="M53.7631 36.7019C53.9675 37.5878 53.9948 38.6218 53.9925 39.6559L53.9878 41.8127C53.986 42.6695 54.3681 43.2005 55.0168 43.1991C55.7244 43.1975 56.1973 42.6647 56.2006 41.1579C56.2056 38.8238 55.1806 35.6647 54.1548 32.8306L53.6859 31.5317C52.6893 28.8157 51.9275 26.6015 51.9331 24.0606C51.9385 21.5493 53.1213 19.9808 55.1557 19.9763C57.1901 19.9718 58.1303 21.4766 58.1259 23.4857L58.1165 27.8288L56.4359 27.8325C56.2314 26.9466 56.2042 25.9126 56.2064 24.8785L56.2106 22.9876C56.2124 22.1603 55.8302 21.6294 55.1816 21.6308C54.4739 21.6323 54.0011 22.1652 53.9978 23.672C53.9932 25.7993 54.7842 28.102 55.6342 30.4342L56.1031 31.7332C57.0703 34.3901 58.2716 37.8443 58.2655 40.6511C58.2598 43.2806 57.1065 44.849 55.0427 44.8535C52.9788 44.8581 52.068 43.3828 52.0728 41.1669L52.0825 36.7056L53.7631 36.7019Z" fill="#FEF6E6"/>
<path d="M59.4784 20.1441L61.5423 20.1395L61.489 44.6621L59.4251 44.6666L59.4784 20.1441Z" fill="#FEF6E6"/>
<path d="M62.996 25.2772C63.0032 21.9386 64.1869 19.9565 66.3982 19.9516C68.6095 19.9467 69.7845 21.9237 69.7773 25.2623L69.7463 39.5031C69.7391 42.8417 68.5554 44.8238 66.3441 44.8287C64.1328 44.8336 62.9578 42.8566 62.965 39.518L62.996 25.2772ZM65.1723 41.345C65.1699 42.4677 65.5813 43.1168 66.3479 43.1151C67.1144 43.1134 67.5286 42.4625 67.5311 41.3398L67.57 23.4353C67.5724 22.3126 67.161 21.6635 66.3944 21.6652C65.6279 21.6669 65.2137 22.3178 65.2112 23.4405L65.1723 41.345Z" fill="#FEF6E6"/>
<path d="M71.2605 20.1182L73.2654 20.1138L75.4114 36.5952L75.7062 36.5946L75.3882 20.1091L77.3342 20.1048L77.2809 44.6274L75.276 44.6318L73.13 28.1503L72.8351 28.151L73.1531 44.6365L71.2072 44.6407L71.2605 20.1182Z" fill="#FEF6E6"/>
</svg>
